<svg width="13" height="16" viewBox="0 0 13 16" fill="none" xmlns="http://www.w3.org/2000/svg">
<line y1="-0.5" x2="3.20154" y2="-0.5" transform="matrix(0.903942 -0.427655 0.269642 0.962961 8.66666 7.59143)" stroke="white"/>
<line y1="-0.5" x2="3.20154" y2="-0.5" transform="matrix(0.903942 0.427655 -0.269642 0.962961 8.66666 7.75989)" stroke="white"/>
<line y1="-0.5" x2="3.20154" y2="-0.5" transform="matrix(0.903942 -0.427655 0.269642 0.962961 8.66666 10.6666)" stroke="white"/>
<path d="M1.39286 8C1.39286 11.3156 3.69688 14.05 6.67411 14.45C6.56384 14.1562 6.5 13.8375 6.5 13.5C6.5 12.6719 7.12388 12 7.89286 12L11.6071 12C12.3761 12 13 12.6719 13 13.5C13 14.8812 11.9612 16 10.6786 16H10.2143H8.82143H7.42857C3.32545 16 0 12.4187 0 8C0 3.58125 3.32545 -2.38419e-07 7.42857 -2.38419e-07H8.82143H10.2143H10.6786C11.9612 -2.38419e-07 13 1.11875 13 2.5C13 3.32812 12.3761 4 11.6071 4H7.89286C7.12388 4 6.5 3.32812 6.5 2.5C6.5 2.1625 6.56094 1.84375 6.67411 1.55C3.69688 1.95 1.39286 4.68437 1.39286 8Z" fill="white"/>
</svg>
