<!DOCTYPE svg PUBLIC "-//W3C//DTD SVG 1.1//EN" "http://www.w3.org/Graphics/SVG/1.1/DTD/svg11.dtd">

<!-- Uploaded to: SVG Repo, www.svgrepo.com, Transformed by: SVG Repo Mixer Tools -->
<svg fill="#cfcfcf" width="14px" height="14px" viewBox="0 0 24 24" xmlns="http://www.w3.org/2000/svg" stroke="#cfcfcf">

<g id="SVGRepo_bgCarrier" stroke-width="0"/>

<g id="SVGRepo_tracerCarrier" stroke-linecap="round" stroke-linejoin="round"/>

<g id="SVGRepo_iconCarrier">

<path d="M3,4V20a1,1,0,0,0,1,1H20a1,1,0,0,0,1-1V4a1,1,0,0,0-1-1H4A1,1,0,0,0,3,4ZM5,5H19V19H10V15a1,1,0,0,0-1-1H5Zm6.293,7.707a1,1,0,0,1,0-1.414L14.086,8.5H13a1,1,0,0,1,0-2h3.5a1.01,1.01,0,0,1,.382.077A1,1,0,0,1,17.5,7.5V11a1,1,0,0,1-2,0V9.914l-2.793,2.793A1,1,0,0,1,11.293,12.707Z"/>

</g>

</svg>