<svg width="20" height="21" viewBox="0 0 20 21" fill="none" xmlns="http://www.w3.org/2000/svg">
<rect width="20" height="21" rx="10" fill="white"/>
<path d="M4.51128 10.5C4.51128 13.6084 6.75 16.1719 9.64286 16.5469C9.53572 16.2715 9.47369 15.9727 9.47369 15.6562C9.47369 14.8799 10.0799 14.25 10.8271 14.25H14.4361C15.1833 14.25 15.7895 14.8799 15.7895 15.6562C15.7895 16.9512 14.7801 18 13.5338 18H13.0827H11.7293H10.3759C6.3891 18 3.1579 14.6426 3.1579 10.5C3.1579 6.35742 6.3891 3 10.3759 3H11.7293H13.0827H13.5338C14.7801 3 15.7895 4.04883 15.7895 5.34375C15.7895 6.12012 15.1833 6.75 14.4361 6.75H10.8271C10.0799 6.75 9.47369 6.12012 9.47369 5.34375C9.47369 5.02734 9.5329 4.72852 9.64286 4.45313C6.75 4.82813 4.51128 7.3916 4.51128 10.5Z" fill="#4F1140"/>
<line y1="-0.5" x2="3.55934" y2="-0.5" transform="matrix(0.938161 -0.346198 0.337879 0.94119 11 10.2322)" stroke="#834370"/>
<line y1="-0.5" x2="3.55934" y2="-0.5" transform="matrix(0.938161 0.346198 -0.337879 0.94119 11 10.3839)" stroke="#834370"/>
<line y1="-0.5" x2="3.55934" y2="-0.5" transform="matrix(0.938161 -0.346198 0.337879 0.94119 11 13)" stroke="#834370"/>
</svg>
