<svg width="60" height="30" viewBox="0 0 60 30" fill="none" xmlns="http://www.w3.org/2000/svg">
<g clip-path="url(#clip0_264_2)">
<path d="M5.92857 15C5.92857 19.1445 9.11875 22.5625 13.2411 23.0625C13.0884 22.6953 13 22.2969 13 21.875C13 20.8398 13.8638 20 14.9286 20H20.0714C21.1362 20 22 20.8398 22 21.875C22 23.6016 20.5616 25 18.7857 25H18.1429H16.2143H14.2857C8.60446 25 4 20.5234 4 15C4 9.47656 8.60446 5 14.2857 5H16.2143H18.1429H18.7857C20.5616 5 22 6.39844 22 8.125C22 9.16016 21.1362 10 20.0714 10L14.9286 10C13.8638 10 13 9.16016 13 8.125C13 7.70312 13.0844 7.30469 13.2411 6.9375C9.11875 7.4375 5.92857 10.8555 5.92857 15Z" fill="#4F1140"/>
<line y1="-0.5" x2="4.40644" y2="-0.5" transform="matrix(0.907762 -0.419486 0.275573 0.96128 16 14.8486)" stroke="#834370"/>
<line y1="-0.5" x2="4.40644" y2="-0.5" transform="matrix(0.907762 0.419486 -0.275573 0.96128 16 15.0762)" stroke="#834370"/>
<line y1="-0.5" x2="4.40644" y2="-0.5" transform="matrix(0.907762 -0.419486 0.275573 0.96128 16 19.0005)" stroke="#834370"/>
<path d="M26.3984 15.3398C26.3984 16.2174 26.2253 16.8932 25.8789 17.3672C25.5352 17.8411 25.0404 18.0781 24.3945 18.0781C23.7461 18.0781 23.2513 17.8451 22.9102 17.3789C22.569 16.9128 22.3984 16.2331 22.3984 15.3398C22.3984 14.4622 22.5677 13.7943 22.9062 13.3359C23.2448 12.8776 23.7435 12.6484 24.4023 12.6484C25.0456 12.6484 25.5391 12.875 25.8828 13.3281C26.2266 13.7786 26.3984 14.4492 26.3984 15.3398ZM25.6133 15.3398C25.6133 13.9518 25.2096 13.2578 24.4023 13.2578C23.5898 13.2578 23.1836 13.9518 23.1836 15.3398C23.1836 16.043 23.2865 16.5742 23.4922 16.9336C23.6979 17.293 24 17.4727 24.3984 17.4727C24.8229 17.4727 25.1315 17.2904 25.3242 16.9258C25.5169 16.5612 25.6133 16.0326 25.6133 15.3398ZM30.0703 18L28.0391 13.5859C28.0807 14.0339 28.1016 14.3646 28.1016 14.5781V18H27.4375V12.7305H28.3047L30.3672 17.1758C30.3203 16.8008 30.2969 16.444 30.2969 16.1055V12.7305H30.9688V18H30.0703ZM35.9102 17.4805C35.3138 17.8789 34.7122 18.0781 34.1055 18.0781C33.4544 18.0781 32.9492 17.8372 32.5898 17.3555C32.2305 16.8711 32.0508 16.1992 32.0508 15.3398C32.0508 14.4362 32.2227 13.7617 32.5664 13.3164C32.9102 12.8711 33.4271 12.6484 34.1172 12.6484C35.0182 12.6484 35.6185 13.0794 35.918 13.9414L35.25 14.1602C35.0417 13.5586 34.6667 13.2578 34.125 13.2578C33.6849 13.2578 33.3594 13.4219 33.1484 13.75C32.9401 14.0781 32.8359 14.6081 32.8359 15.3398C32.8359 16.7617 33.2799 17.4727 34.168 17.4727C34.3451 17.4727 34.5286 17.4453 34.7188 17.3906C34.9089 17.3359 35.0638 17.2669 35.1836 17.1836V15.8711H34.0391V15.2461H35.9102V17.4805ZM39.832 18V15.5664H37.793V18H37.0469V12.7305H37.793V14.9414H39.832V12.7305H40.5781V18H39.832ZM45.457 16.0859C45.457 16.7812 45.3086 17.2878 45.0117 17.6055C44.7148 17.9206 44.2383 18.0781 43.582 18.0781C42.9466 18.0781 42.4857 17.9258 42.1992 17.6211C41.9154 17.3138 41.7734 16.8255 41.7734 16.1562V12.7305H42.5195V16.0547C42.5195 16.5859 42.5951 16.9557 42.7461 17.1641C42.8997 17.3698 43.1771 17.4727 43.5781 17.4727C43.9974 17.4727 44.2917 17.3659 44.4609 17.1523C44.6302 16.9388 44.7148 16.556 44.7148 16.0039V12.7305H45.457V16.0859ZM50.5234 16.5156C50.5234 16.9844 50.3451 17.349 49.9883 17.6094C49.6315 17.8698 49.1354 18 48.5 18H46.6562V12.7305H48.2656C49.5573 12.7305 50.2031 13.1562 50.2031 14.0078C50.2031 14.3255 50.1094 14.5911 49.9219 14.8047C49.7344 15.0182 49.4792 15.1576 49.1562 15.2227C49.5911 15.2695 49.9271 15.4089 50.1641 15.6406C50.4036 15.8724 50.5234 16.1641 50.5234 16.5156ZM49.4531 14.1016C49.4531 13.8229 49.3542 13.625 49.1562 13.5078C48.9609 13.388 48.6667 13.3281 48.2734 13.3281H47.4023V14.9531H48.2812C49.0625 14.9531 49.4531 14.6693 49.4531 14.1016ZM49.7695 16.4492C49.7695 16.1523 49.6536 15.9258 49.4219 15.7695C49.1901 15.6133 48.8451 15.5352 48.3867 15.5352H47.4023V17.4023H48.4414C48.8971 17.4023 49.2318 17.3242 49.4453 17.168C49.6615 17.0091 49.7695 16.7695 49.7695 16.4492Z" fill="#1B0026"/>
</g>
<defs>
<clipPath id="clip0_264_2">
<rect width="60" height="30" rx="4" fill="white"/>
</clipPath>
</defs>
</svg>
