<svg width="43" height="17" viewBox="0 0 43 17" fill="none" xmlns="http://www.w3.org/2000/svg">
<path d="M17.8486 8.67236C17.8486 9.44027 17.6971 10.0316 17.394 10.4463C17.0933 10.861 16.6603 11.0684 16.0952 11.0684C15.5278 11.0684 15.0949 10.8644 14.7964 10.4565C14.4979 10.0487 14.3486 9.45394 14.3486 8.67236C14.3486 7.90446 14.4967 7.31999 14.793 6.91895C15.0892 6.5179 15.5256 6.31738 16.1021 6.31738C16.6649 6.31738 17.0967 6.51562 17.3975 6.91211C17.6982 7.30632 17.8486 7.89307 17.8486 8.67236ZM17.1616 8.67236C17.1616 7.45785 16.8084 6.85059 16.1021 6.85059C15.3911 6.85059 15.0356 7.45785 15.0356 8.67236C15.0356 9.2876 15.1257 9.75244 15.3057 10.0669C15.4857 10.3813 15.75 10.5386 16.0986 10.5386C16.4701 10.5386 16.7401 10.3791 16.9087 10.0601C17.0773 9.74105 17.1616 9.27848 17.1616 8.67236ZM21.0615 11L19.2842 7.1377C19.3206 7.52962 19.3389 7.81901 19.3389 8.00586V11H18.7578V6.38916H19.5166L21.3213 10.2788C21.2803 9.95068 21.2598 9.63851 21.2598 9.34229V6.38916H21.8477V11H21.0615ZM26.1714 10.5454C25.6496 10.894 25.1232 11.0684 24.5923 11.0684C24.0226 11.0684 23.5806 10.8576 23.2661 10.436C22.9517 10.0122 22.7944 9.42432 22.7944 8.67236C22.7944 7.88167 22.9448 7.2915 23.2456 6.90186C23.5464 6.51221 23.9987 6.31738 24.6025 6.31738C25.391 6.31738 25.9162 6.6945 26.1782 7.44873L25.5938 7.64014C25.4115 7.11377 25.0833 6.85059 24.6094 6.85059C24.2243 6.85059 23.9395 6.99414 23.7549 7.28125C23.5726 7.56836 23.4814 8.03206 23.4814 8.67236C23.4814 9.9165 23.87 10.5386 24.647 10.5386C24.8019 10.5386 24.9626 10.5146 25.1289 10.4668C25.2952 10.4189 25.4308 10.3586 25.5356 10.2856V9.13721H24.5342V8.59033H26.1714V10.5454ZM29.603 11V8.87061H27.8188V11H27.166V6.38916H27.8188V8.32373H29.603V6.38916H30.2559V11H29.603ZM34.5249 9.3252C34.5249 9.93359 34.395 10.3768 34.1353 10.6548C33.8755 10.9305 33.4585 11.0684 32.8843 11.0684C32.3283 11.0684 31.925 10.9351 31.6743 10.6685C31.4259 10.3996 31.3018 9.97233 31.3018 9.38672V6.38916H31.9546V9.29785C31.9546 9.7627 32.0207 10.0863 32.1528 10.2686C32.2873 10.4486 32.5299 10.5386 32.8809 10.5386C33.2477 10.5386 33.5052 10.4451 33.6533 10.2583C33.8014 10.0715 33.8755 9.73649 33.8755 9.25342V6.38916H34.5249V9.3252ZM38.958 9.70117C38.958 10.1113 38.8019 10.4303 38.4897 10.6582C38.1776 10.8861 37.7435 11 37.1875 11H35.5742V6.38916H36.9824C38.1126 6.38916 38.6777 6.76172 38.6777 7.50684C38.6777 7.78483 38.5957 8.01725 38.4316 8.2041C38.2676 8.39095 38.0443 8.51286 37.7617 8.56982C38.1423 8.61084 38.4362 8.73275 38.6436 8.93555C38.8532 9.13835 38.958 9.39355 38.958 9.70117ZM38.0215 7.58887C38.0215 7.34505 37.9349 7.17188 37.7617 7.06934C37.5908 6.96452 37.3333 6.91211 36.9893 6.91211H36.2271V8.33398H36.9961C37.6797 8.33398 38.0215 8.08561 38.0215 7.58887ZM38.2983 9.64307C38.2983 9.3833 38.1969 9.18506 37.9941 9.04834C37.7913 8.91162 37.4894 8.84326 37.0884 8.84326H36.2271V10.4771H37.1362C37.535 10.4771 37.8278 10.4087 38.0146 10.272C38.2038 10.133 38.2983 9.92334 38.2983 9.64307Z" fill="white"/>
<path d="M3.28571 8.5C3.28571 11.6084 5.4125 14.1719 8.16071 14.5469C8.05893 14.2715 8 13.9727 8 13.6562C8 12.8799 8.57589 12.25 9.28571 12.25H12.7143C13.4241 12.25 14 12.8799 14 13.6562C14 14.9512 13.0411 16 11.8571 16H11.4286H10.1429H8.85714C5.06964 16 2 12.6426 2 8.5C2 4.35742 5.06964 1 8.85714 1H10.1429H11.4286H11.8571C13.0411 1 14 2.04883 14 3.34375C14 4.12012 13.4241 4.75 12.7143 4.75H9.28571C8.57589 4.75 8 4.12012 8 3.34375C8 3.02734 8.05625 2.72852 8.16071 2.45313C5.4125 2.82813 3.28571 5.3916 3.28571 8.5Z" fill="white"/>
<line y1="-0.5" x2="3.55934" y2="-0.5" transform="matrix(0.938161 -0.346198 0.337879 0.94119 9 8.23218)" stroke="#BA93AE"/>
<line y1="-0.5" x2="3.55934" y2="-0.5" transform="matrix(0.938161 0.346198 -0.337879 0.94119 9 8.38391)" stroke="#BA93AE"/>
<line y1="-0.5" x2="3.55934" y2="-0.5" transform="matrix(0.938161 -0.346198 0.337879 0.94119 9 11)" stroke="#BA93AE"/>
</svg>
